<svg xmlns="http://www.w3.org/2000/svg" viewBox="0 0 108.479 8.467" height="32" width="410"><g aria-label="OpenGameArt.Org" fill="#fff"><path d="M1.651.725C.927.725.344 1.308.344 2.032v4.625c0 .724.583 1.307 1.307 1.307h4.625c.724 0 1.307-.583 1.307-1.307V2.032C7.583 1.308 7 .725 6.276.725zm0 6.153c-.12 0-.221-.1-.221-.221V2.032c0-.12.1-.221.221-.221h4.625c.12 0 .221.1.221.221v4.625c0 .12-.1.221-.221.221zM8.908 2.133v5.831h1.086v-2c.07.01.14.02.221.02h3.318a1.31 1.31 0 0 0 1.307-1.308V3.44a1.31 1.31 0 0 0-1.307-1.307zm4.846 2.543c0 .12-.1.221-.22.221h-3.319c-.12 0-.221-.1-.221-.22V3.44c0-.121.1-.222.221-.222h3.318c.12 0 .221.1.221.222zM21.112 2.122h-5.328v5.842h5.328V6.878H16.87V5.591h3.157V4.505H16.87V3.208h4.243zM27.39 6.516l-3.66-4.383h-1.287v5.831h1.086V3.57l3.66 4.394h1.287V2.133H27.39zM37.069 2.032c0-.724-.584-1.307-1.307-1.307h-4.625c-.724 0-1.307.583-1.307 1.307v4.625c0 .724.583 1.307 1.307 1.307h4.625c.723 0 1.307-.583 1.307-1.307V4.003h-2.795v1.085h1.709v1.569c0 .12-.1.221-.221.221h-4.625c-.121 0-.222-.1-.222-.221V2.032c0-.12.101-.221.222-.221h4.625c.12 0 .22.1.22.221v.432h1.087zM39.69 2.133c-.724 0-1.307.583-1.307 1.307v4.524h1.086V6.436h4.062v1.528h1.086V3.44c0-.724-.583-1.307-1.307-1.307zm-.22 3.217V3.44c0-.121.1-.222.22-.222h3.62c.12 0 .221.1.221.222v1.91zM49.516 5.43l-2.312-3.308h-1.287v5.842h1.086V3.48l2.513 3.59 2.514-3.59v4.484h1.086V2.122h-1.297zM59.77 2.122h-5.328v5.842h5.328V6.878h-4.242V5.591h3.157V4.505h-3.157V3.208h4.242zM62.448.725c-.723 0-1.307.583-1.307 1.307v5.932h1.086V5.43h5.068v2.534h1.085V2.032c0-.724-.583-1.307-1.307-1.307zm-.22 3.62V2.031c0-.12.1-.221.22-.221h4.625c.121 0 .222.1.222.221v2.312zM75.676 3.44a1.31 1.31 0 0 0-1.307-1.307h-4.625v5.831h1.086v-1.98h1.488l2.172 1.98h1.286v-.15l-2.04-1.83h.633a1.31 1.31 0 0 0 1.307-1.308zM71.05 4.897c-.12 0-.221-.1-.221-.22V3.44c0-.121.1-.222.221-.222h3.318c.12 0 .221.1.221.222v1.236c0 .12-.1.221-.221.221zM76.69 2.133v1.085h2.474v4.746h1.086V3.218h2.473V2.133zM84.816 6.878h-1.085v1.086h1.085zM87.436.725c-.724 0-1.307.583-1.307 1.307v4.625c0 .724.583 1.307 1.307 1.307h4.625c.724 0 1.307-.583 1.307-1.307V2.032c0-.724-.583-1.307-1.307-1.307zm0 6.153c-.12 0-.221-.1-.221-.221V2.032c0-.12.1-.221.22-.221h4.626c.12 0 .22.1.22.221v4.625c0 .12-.1.221-.22.221zM100.625 3.44a1.31 1.31 0 0 0-1.307-1.307h-4.625v5.831h1.086v-1.98h1.488l2.172 1.98h1.286v-.15l-2.04-1.83h.633a1.31 1.31 0 0 0 1.307-1.308zM96 4.897c-.12 0-.221-.1-.221-.22V3.44c0-.121.1-.222.221-.222h3.318c.12 0 .221.1.221.222v1.236c0 .12-.1.221-.221.221zM107.863 3.43c0-.724-.583-1.308-1.307-1.308h-3.318c-.724 0-1.307.584-1.307 1.308v3.227c0 .724.583 1.307 1.307 1.307h3.318c.724 0 1.307-.583 1.307-1.307v-1.85h-2.795v1.086h1.71v.764c0 .12-.101.221-.222.221h-3.318c-.12 0-.221-.1-.221-.221V3.43c0-.121.1-.222.221-.222h3.318c.12 0 .221.1.221.222v.281h1.086z"/></g></svg>